<!--?xml version="1.0" encoding="utf-8"?-->
<!-- Generator: Adobe Illustrator 22.1.0, SVG Export Plug-In . SVG Version: 6.00 Build 0)  -->
<svg version="1.1" id="_x34_" xmlns="http://www.w3.org/2000/svg" xmlns:xlink="http://www.w3.org/1999/xlink" x="0px" y="0px" viewBox="0 0 800 520.7" style="enable-background:new 0 0 800 520.7;" xml:space="preserve">
<style type="text/css">
	.stblack{fill:#000000;}
	.st0{fill:#FFFFFF;}
</style>
<g>
	<path class="st0" d="M104.6,399.6c-33.6-21.6-70.8-73.2-54-132s49.2-67.2,49.2-67.2s8.4-46.8,44.4-74.4
		c36-27.6,76.8-16.8,76.8-16.8s27.6-45.6,81.6-55.2s76.8,8.4,76.8,8.4s43.2-27.6,98.4-24c55.2,3.6,87.6,36,87.6,36
		s31.2,2.4,58.8,10.8c27.6,8.4,74.4,50.4,86.4,70.8c12,20.4,18,24,18,24s10.8,2.4,32.4,32.4s22.8,69.6,13.2,102
		c-9.6,32.4-21.6,62.4-46.8,68.4c-6,4.8-12,6-12,6s-15.6,26.4-30,37.2c-14.4,10.8-64.8,10.8-64.8,10.8s-13.2,20.4-54,25.2
		c-40.8,4.8-70.8-7.2-70.8-7.2s1.2,43.2,2.4,52.8c-27.6-10.8-42-39.6-42-39.6s-20.4,0-32.4,7.2c-12,7.2-60,18-108,4.8
		s-80.4-39.6-80.4-39.6s-22.8,4.8-52.8-1.2c-30-6-68.4-28.8-68.4-28.8L104.6,399.6z"></path>
	<path class="stblack" d="M288.6,27.8c3.6-0.3,7.2-0.5,10.8-0.6c3.6-0.1,7.1-0.2,10.5-0.1c6.8,0.1,13,0.9,17.7,2.2c3,0.8,5.6,2.2,7.1,3.9
		c1.6,1.6,2.1,3.3,1.6,4.6c-0.6,1.3-2.2,2-4.2,2.3c-2,0.2-4.5,0-7.1-0.7c-12-3.2-26.3-4.2-35.8-3.4c-9,0.7-18,2.3-26.5,5
		c-8.6,2.7-16.8,6.4-24.2,11.4c-1,0.6-2,1.4-3,2.2c-1,0.8-2.1,1.7-3.2,2.6c-2.1,1.9-4.3,3.9-6.4,6.2c-4.2,4.5-8.1,9.8-11.3,15.2
		c-1.4,2.3-3,4.2-4.6,5.5c-1.6,1.3-3.2,1.8-4.6,1.3c-1.3-0.5-2-2.1-2.1-4.4c0-2.2,0.8-5,2.4-7.7c0.6-1.1,1.4-2.1,2.1-3.3
		c0.8-1.1,1.7-2.3,2.6-3.5c1.9-2.3,4.1-4.8,6.6-7.2c4.9-4.8,10.8-9.4,16.9-13.5c8.1-5.4,17-9.5,26.2-12.3
		C269.5,30.3,279,28.6,288.6,27.8z"></path>
	<path class="stblack" d="M137.3,91.9c6-2.8,12.3-5.5,18.5-7.1c3.1-0.8,6.2-1.3,9-1.5c1.4-0.1,2.8-0.1,4.2-0.1c1.3,0.1,2.6,0.1,3.7,0.3
		c1.5,0.3,2.9,0.6,4.1,1.2c1.2,0.6,2.2,1.2,3,2c1.5,1.5,2.1,3.1,1.5,4.4c-0.5,1.3-2,2.2-3.8,2.5c-0.9,0.2-1.9,0.4-2.9,0.4
		c-1,0-2.1,0-3.3-0.2c-5.3-0.7-11-0.4-16.4,0.7c-5.4,1.1-10.4,2.8-14.3,4.7c-7.3,3.6-14.3,8-20.7,13.1c-6.4,5.1-12.1,11-17,17.5
		c-2.5,3.5-5.3,8-7.4,13.1c-2.2,5.1-3.8,10.8-4.9,16.3c-0.2,1.2-0.5,2.3-1,3.3c-0.4,1-0.8,1.9-1.4,2.7c-1.1,1.6-2.4,2.6-3.9,2.5
		c-1.4,0-2.6-1.2-3.4-3.1c-0.4-1-0.7-2.1-0.8-3.4c-0.1-1.3,0-2.6,0.3-4c0.2-1.1,0.5-2.3,0.8-3.5c0.4-1.2,0.7-2.5,1.2-3.8
		c0.5-1.3,1-2.7,1.6-4.1c0.5-1.4,1.3-2.8,2-4.2c2.8-5.6,6.5-11.4,10.5-16.7c5.3-7.1,11.5-13.4,18.4-18.9
		C121.9,100.5,129.4,95.8,137.3,91.9z"></path>
	<path class="stblack" d="M470.7,15.7c3.7,0.6,7.4,1.5,11.1,2.2c1.8,0.3,3.6,0.8,5.4,1.3c1.8,0.4,3.5,0.9,5.2,1.3c3.4,1,6.6,2,9.5,2.9
		c2.9,1.1,5.5,2.2,7.8,3.1c1.5,0.6,2.7,1.4,3.8,2.3c1.1,0.9,2,1.7,2.7,2.6c1.4,1.8,1.9,3.5,1.2,4.7c-0.7,1.2-2.4,1.8-4.6,1.8
		c-1.1,0-2.3-0.2-3.6-0.6c-1.3-0.3-2.6-0.9-3.9-1.4c-1.5-0.7-3.1-1.4-4.7-2.1c-0.8-0.3-1.6-0.7-2.4-1.1l-2.4-0.9
		c-1.6-0.6-3.2-1.3-4.8-1.9c-0.8-0.3-1.6-0.6-2.4-0.9c-0.8-0.3-1.6-0.5-2.4-0.8c-1.6-0.5-3.1-1.1-4.6-1.6c-1.5-0.5-3-0.8-4.5-1.2
		c-1.5-0.4-2.9-0.8-4.2-1.1c-1.4-0.3-2.7-0.5-3.9-0.7l-3.5-0.6l-1.8-0.3c-0.6-0.1-1.2-0.1-1.8-0.2l-7.1-0.8
		c-4.8-0.3-9.5-0.7-14.3-0.6l-3.6,0c-1.2,0-2.4,0.1-3.6,0.2c-2.4,0.2-4.8,0.2-7.1,0.4l-7.1,0.8c-1.2,0.1-2.4,0.3-3.5,0.5l-3.5,0.6
		c-1.2,0.2-2.6,0.4-3.9,0.8c-1.3,0.4-2.8,0.7-4.2,1.1c-1.4,0.4-3,0.8-4.5,1.3c-1.5,0.5-3.1,1-4.6,1.6c-6.3,2.1-12.7,5-18.9,7.8
		c-0.3,0.1-0.7,0.3-1,0.4c-0.3,0.1-0.6,0.2-0.9,0.3c-0.5,0.2-1.1,0.4-1.5,0.5c-0.9,0.3-1.6,0.5-2.3,0.5c-0.6,0.1-1.3,0.1-2,0.4
		c-0.7,0.2-1.3,0.5-2.1,0.5c-0.7,0-1.4-0.4-1.9-1.3c-0.5-0.9-0.5-2.4,0-3.9c1.1-3.1,4.3-5.7,7.2-6.8c2.3-1,4.9-2.1,7.8-3.2
		c3-0.9,6.2-2,9.5-3c1.7-0.4,3.5-0.9,5.2-1.3c1.8-0.4,3.6-1,5.4-1.3c1.8-0.4,3.7-0.8,5.5-1.2c0.9-0.2,1.8-0.4,2.8-0.6l2.8-0.5
		l3.7-0.6c1.2-0.2,2.5-0.5,3.7-0.6l7.5-0.9c2.5-0.2,5-0.3,7.5-0.5c1.3,0,2.5-0.2,3.8-0.2l3.8,0c5-0.1,10,0.3,15,0.6l7.5,0.9
		c0.6,0.1,1.2,0.1,1.9,0.2L467,15L470.7,15.7z"></path>
	<path class="stblack" d="M24.7,243.9c2.9-9.8,7-19.3,11.6-27.6c4.6-8.3,9.9-15.2,14.5-20c0.7-0.8,1.5-1.5,2.2-2.2c0.8-0.6,1.6-1.2,2.3-1.8
		c1.5-1.1,3-1.9,4.4-2.4c2.7-1.1,4.8-1.1,5.7,0c0.9,1.1,0.4,3.2-0.9,5.5c-0.7,1.2-1.6,2.5-2.6,3.8c-0.5,0.7-1.1,1.4-1.7,2
		c-0.6,0.7-1.2,1.4-1.9,2.1c-6.1,6.4-11.9,13.8-16.3,21.3c-4.5,7.5-7.7,15.1-9.6,21.4c-1.8,6-3,12.2-3.7,18.4
		c-0.1,1.6-0.4,3.1-0.4,4.7L28,274c0,3.1,0,6.3,0.3,9.4c0.5,6.2,1.4,12.5,3.1,18.5c1.6,6.1,3.7,12,6.3,17.7c2.8,6,7,13.1,12.5,19.9
		c2.8,3.4,5.7,6.7,9,9.9l2.4,2.4l2.6,2.2c1.7,1.5,3.4,2.9,5.1,4.1c2.9,2.1,5.3,3.8,7.1,5.2c1.8,1.4,3.4,2.6,3.4,4
		c0,0.7-0.4,1.4-1.2,2c-0.9,0.6-2.2,1-3.9,1.1c-1.7,0.1-3.6-0.2-5.6-0.9c-2-0.7-4-1.7-5.8-3.1c-1.4-1-2.9-2.2-4.3-3.5
		c-1.4-1.3-2.9-2.7-4.4-4.1c-1.4-1.5-2.9-3.1-4.4-4.8c-1.4-1.7-3-3.5-4.4-5.4c-5.8-7.5-11-16.5-15.3-25.7c-2.8-6.1-5-12.5-6.8-19
		c-1.8-6.5-2.8-13.2-3.3-19.9c-0.3-3.4-0.3-6.7-0.3-10.1l0.2-5.1c0.1-1.7,0.3-3.4,0.5-5C21.5,257,22.8,250.4,24.7,243.9z"></path>
	<path class="stblack" d="M158.6,414.2c4.5,0.9,9.2,1.1,13.4,1.2c2.1,0,4.1,0,6-0.1c1.8-0.1,3.6-0.1,4.9-0.1c1.7,0,2.9,0.3,3.7,1
		c0.4,0.3,0.9,0.7,1.4,1.1c0.5,0.4,1.1,0.7,1.7,1.1c0.6,0.4,0.9,1.1,0.9,1.9c0,0.9-0.5,1.8-1.3,2.6c-1.5,1.6-3.9,2.5-6.1,2.6
		c-0.6,0-1.3,0-1.9,0l-1.8-0.1c-1.2-0.1-2.4-0.1-3.6-0.2c-2.4-0.3-4.7-0.5-6.9-0.9c-1.1-0.2-2.2-0.4-3.3-0.5
		c-1.1-0.2-2.1-0.4-3.1-0.6c-2-0.4-3.9-0.8-5.5-1.1c-12.7-2.4-25.1-6.4-36.7-12.1c-1.5-0.8-3.3-1.5-5.1-2.5
		c-0.9-0.5-1.9-0.9-2.9-1.4c-1-0.5-2-1.1-3-1.6c-1-0.5-2-1.1-3-1.7c-1-0.6-2-1.2-3-1.9c-2-1.4-4.1-2.9-6-4.9
		c-1.7-1.7-2.7-4.1-2.5-6.1c0.1-1,0.4-1.9,0.9-2.5c0.5-0.6,1.1-0.9,1.8-1s1.4,0,2.1,0.1c0.7,0.1,1.3,0.2,1.9,0.4
		c1.2,0.3,2.2,0.9,3.3,2c1.6,1.8,4.4,4.2,7.8,6.8c3.3,2.5,7.2,5.2,11.3,7.2C134.8,408.1,146.6,411.9,158.6,414.2z"></path>
	<path class="stblack" d="M350.5,459.1c21.1-1.7,42.2-7.7,55.5-11.1c8.5-2.1,16-1.9,16.8,0.9c0.8,2.7-5.6,6.9-14.3,9.1c-10,2.5-20.5,4.5-30.5,6
		c-9.9,1.5-19.3,2.4-26.9,3c-14.4,1.2-28.9,1.2-43.4-0.4c-7.2-0.8-14.4-2.2-21.5-3.8c-7.1-1.7-14-4-20.8-6.5
		c-7.2-2.8-15.9-6.6-24.8-11.7c-8.9-5.1-17.8-11.6-25.4-19c-1.7-1.6-3-3.3-4.2-4.9c-1.2-1.6-2.1-3.2-2.7-4.7c-1.2-2.9-1.4-5.1-0.3-6
		c1.1-0.9,3.3-0.3,5.8,1.2c1.3,0.8,2.6,1.8,4.1,2.9c1.5,1.1,2.9,2.6,4.5,4c4.8,4.7,11.2,10.5,19.1,16.1c7.8,5.6,17.1,10.7,26.9,14.5
		c6.5,2.4,13.1,4.6,19.8,6.2c6.8,1.6,13.6,2.9,20.5,3.6C322.5,460.2,336.5,460.2,350.5,459.1z"></path>
	<path class="stblack" d="M565.7,431.7c1.3-0.6,2.6-1.3,3.9-2c1.3-0.7,2.6-1.4,3.8-2.1c1.2-0.8,2.4-1.6,3.6-2.4c0.6-0.4,1.2-0.8,1.7-1.2
		c0.6-0.4,1.1-0.8,1.6-1.2c2.1-1.7,4.1-3.2,5.9-4.8c1.7-1.6,3.3-3,4.7-4.2c0.2-0.2,0.5-0.4,0.7-0.5c0.2-0.2,0.4-0.4,0.7-0.5
		c0.4-0.3,0.9-0.6,1.4-0.9c0.9-0.5,1.8-0.9,2.7-1.2c1.8-0.5,3.5-0.3,4.5,0.7c1,1,1.3,2.6,0.7,4.4c-0.3,0.9-0.7,1.9-1.4,2.9
		c-0.3,0.5-0.7,1-1.1,1.5c-0.2,0.2-0.4,0.5-0.6,0.7c-0.2,0.2-0.5,0.4-0.7,0.6c-1.2,1-2.3,1.9-3.5,2.9c-1.2,0.9-2.4,2-3.7,2.8
		c-1.3,0.8-2.6,1.7-3.8,2.5c-0.6,0.4-1.3,0.8-1.9,1.2c-0.6,0.4-1.3,0.7-1.9,1.1c-1.3,0.7-2.6,1.4-3.8,2c-0.6,0.3-1.2,0.7-1.8,1
		c-0.6,0.3-1.2,0.6-1.8,0.8c-2.4,1.1-4.6,2.1-6.6,3.1c-7.6,3.4-15.6,5.8-23.7,7.7c-8.2,1.6-16.5,2.5-24.8,2.4
		c-2.2-0.1-4.7-0.1-7.3-0.2c-0.7,0-1.3,0-2,0c-0.7-0.1-1.4-0.1-2.1-0.2c-1.4-0.1-2.8-0.2-4.3-0.4c-0.7-0.1-1.5-0.1-2.2-0.2
		c-0.7-0.1-1.5-0.2-2.2-0.4c-1.5-0.3-3-0.5-4.5-0.8c-1.5-0.2-3-0.7-4.5-1.1c-1.5-0.4-2.9-0.8-4.4-1.2c-0.3-0.1-0.6-0.2-0.9-0.3
		c-0.3-0.1-0.6-0.3-0.9-0.4c-0.6-0.3-1.1-0.6-1.6-0.9c-1-0.7-1.8-1.4-2.4-2.1c-1.2-1.5-1.7-3-1.1-4.3c0.6-1.3,2-2.1,3.8-2.4
		c0.9-0.2,1.9-0.2,3,0c0.5,0.1,1.1,0.2,1.6,0.3c0.3,0.1,0.5,0.1,0.8,0.2c0.3,0.1,0.6,0.1,0.9,0.2c1.8,0.5,3.8,1.2,6,2
		c2.2,0.7,4.7,1.3,7.3,2c0.6,0.2,1.3,0.3,2,0.4c0.7,0.1,1.4,0.2,2,0.4c1.4,0.2,2.8,0.5,4.2,0.7c1.4,0.2,2.9,0.3,4.3,0.4
		c1.5,0.1,2.9,0.2,4.4,0.2c7.8,0,15.5-0.8,23.1-2.3C551.1,437.1,558.6,434.8,565.7,431.7z"></path>
	<path class="stblack" d="M671,101.8c6,6,11.5,12.6,16,18.9c4.6,6.3,8.3,12.2,10.8,17c3.3,6,3.7,12,1.2,13.3c-2.5,1.3-7.1-2.5-10.2-8.4
		c-3.6-6.7-7.4-13.6-11.4-19.7c-2-3.1-4-5.9-6.1-8.5c-0.5-0.6-1-1.3-1.5-1.9c-0.5-0.6-1-1.2-1.5-1.8c-1-1.1-2-2.2-3-3.2
		C658,100,649.6,93.6,640.6,88c-9-5.6-18.5-10.4-28.2-14.8c-5.1-2.3-11.7-4.8-18.7-7.3c-7-2.5-14.4-4.7-21.3-5.5
		c-3-0.4-5.7-1-7.8-1.8c-1-0.4-1.9-0.9-2.6-1.4c-0.7-0.5-1.1-1.2-1.2-1.9c-0.1-0.7,0.1-1.4,0.7-2.1c0.6-0.7,1.5-1.4,2.6-1.9
		c2.3-1.1,5.8-1.7,9.5-1.2c5.8,0.7,12.8,2.9,19.9,5.9c3.6,1.5,7.2,3.2,10.9,4.8c3.7,1.7,7.5,3.4,11.2,5.1c10,4.5,19.8,9.5,29.2,15.3
		C654.2,87.1,663.2,93.8,671,101.8z"></path>
	<path class="stblack" d="M756.2,303.4c-3.1,9.9-6.9,19.7-11.4,28.3c-4.5,8.6-9.5,15.9-13.9,21.2c-2.9,3.2-6,5.8-8.7,7.1c-2.7,1.3-4.8,1.5-5.7,0.5
		c-1-1.1-0.6-3.2,0.6-5.7c1.3-2.4,3.3-5.6,6-8.5c5.9-7,11.4-14.9,15.8-22.8c4.4-7.9,7.7-15.7,9.7-22.3c0.6-1.5,0.9-3.1,1.4-4.7
		c0.4-1.6,0.9-3.1,1.3-4.7l1-4.8l0.5-2.4c0.1-0.8,0.3-1.6,0.4-2.4l0.8-4.8c0.3-1.6,0.4-3.2,0.5-4.9c0.1-1.6,0.4-3.2,0.4-4.9l0.2-4.9
		c0-0.8,0.1-1.6,0.1-2.4l0-2.4l0-4.9c0-1.6-0.2-3.2-0.3-4.9c-0.1-1.6-0.2-3.3-0.4-4.9c-0.6-6.5-1.8-12.9-3.4-19.1
		c-1.7-6.6-4.6-14.6-8.8-22.5c-4.2-7.9-9.7-15.7-16-22.1c-2.7-2.8-5-5.5-6.5-7.8c-1.5-2.2-2.2-4.3-1.4-5.5c0.8-1.2,2.9-1.3,5.8-0.3
		c2.9,1,6.4,3.2,9.5,6.4c4.9,5,10.3,12.3,14.6,21c4.4,8.7,8.1,18.7,10.6,28.8c1.7,6.7,3,13.5,3.7,20.3c0.2,1.7,0.3,3.4,0.4,5.1
		c0.1,1.7,0.3,3.4,0.3,5.1l0,5.2l0,2.6c0,0.9-0.1,1.7-0.1,2.6l-0.2,5.1c-0.1,1.7-0.3,3.4-0.5,5.1c-0.2,1.7-0.3,3.4-0.6,5.1l-0.8,5.1
		c-0.1,0.8-0.3,1.7-0.4,2.5l-0.5,2.5l-1.1,5c-0.4,1.7-0.9,3.3-1.3,5C757.1,300.1,756.8,301.8,756.2,303.4z"></path>
	<path class="stblack" d="M650.2,418.3c-6,2-12.1,3.6-17.9,4.7c-5.7,1-11,1.5-15.1,1.5c-5.2-0.1-9.3-2.7-9-5.6c0.3-2.9,4.3-4.8,9-4.8
		c5.5,0,11.1-0.1,16.4-0.7c5.3-0.6,10.1-1.6,13.9-2.8l2.7-0.9l2.6-1.1l1.3-0.5l1.3-0.6c0.8-0.4,1.7-0.8,2.5-1.2
		c1.6-0.9,3.3-1.8,4.8-2.8c0.8-0.5,1.6-1,2.3-1.6l2.2-1.7c5.9-4.6,10.7-10.4,14.7-16.8c2.1-3.4,4.2-8,6.1-13
		c1.9-5,3.7-10.6,5.5-15.9c1.6-4.6,5-7.8,7.7-6.9c2.7,0.9,3.7,5.5,2,10.2c-2.6,7.5-8,19-14.6,29.7c-4.4,7.1-9.8,13.7-16.5,18.9
		l-2.5,1.9c-0.8,0.6-1.8,1.2-2.6,1.8c-1.7,1.2-3.6,2.2-5.5,3.2c-0.9,0.5-1.9,0.9-2.8,1.4l-1.4,0.7l-1.5,0.6l-2.9,1.2L650.2,418.3z"></path>
	<path class="stblack" d="M461.4,469.8c4.7,3.7,10.5,5.9,13.7,7.8c2.1,1.2,2.8,4.1,1.5,6.7c-1.3,2.5-4.3,3.6-6.6,2.3c-5.3-3-10.1-7.7-13.6-10.5
		c-3.3-2.6-6.4-5.5-9.5-8.4c-3-3-5.8-6.1-8.5-9.4c-2.8-3.5-7.5-8.2-10.5-13.6c-1.3-2.3-0.3-5.3,2.2-6.6c2.5-1.3,5.5-0.6,6.7,1.4
		c1.9,3.3,4.1,9.1,7.9,13.7c2.5,3.1,5.1,6,7.9,8.8C455.4,464.7,458.3,467.3,461.4,469.8z"></path>
	<path class="stblack" d="M481.5,474c0.7,6,3.2,11.7,4.2,15.4c0.6,2.3-1.1,4.9-3.8,5.7c-2.7,0.8-5.5-0.6-6.2-3.2c-1.5-5.9-1.6-12.5-2.1-16.9
		c-0.5-4.2-0.8-8.4-1-12.6c-0.1-4.2-0.1-8.4,0.2-12.6c0.3-4.4-0.1-11,1.1-17c0.5-2.6,3.2-4.2,6-3.6c2.8,0.6,4.6,3.1,4.2,5.5
		c-0.7,3.7-2.9,9.6-3.2,15.6c-0.2,3.9-0.3,7.9-0.2,11.9C480.7,466.1,481,470,481.5,474z"></path>
</g>
<g font-family="noto" id="svgTXT" font-size="60"><text x="50%" y="58.7%" fill="2EDF82" text-anchor="middle" font-weight="bolder" style="fill: rgb(0, 0, 0);">感動の誕生日配信!!</text></g></svg>
