<!--?xml version="1.0" encoding="utf-8"?-->
<!-- Generator: Adobe Illustrator 22.1.0, SVG Export Plug-In . SVG Version: 6.00 Build 0)  -->
<svg version="1.1" id="_x33_" xmlns="http://www.w3.org/2000/svg" xmlns:xlink="http://www.w3.org/1999/xlink" x="0px" y="0px" viewBox="0 0 800 330.5" style="enable-background:new 0 0 800 330.5;" xml:space="preserve">
<g>
	<path d="M325.3,317.5c-3.1-0.4-7.7-1-13.2-2.1c-5.5-1.1-12-2.9-19-5.3c-7.1-2.4-14.7-5.4-22.6-8.8c-8-3.4-15.5-6.7-22.6-9.5
		c-3.5-1.4-6.9-2.7-10.1-3.7c-3.2-1.1-6.2-2-9-2.7c-2.8-0.7-5.4-1.2-7.6-1.5c-2.3-0.3-4.2-0.5-5.9-0.5c-1.6,0-2.9,0-3.7,0.1
		c-0.8,0.1-1.3,0.2-1.3,0.4c0,0.1,0.4,0.3,1.3,0.4c0.8,0.1,2,0.3,3.6,0.6c1.6,0.3,3.4,0.6,5.6,1.1c2.2,0.5,4.6,1.2,7.3,2
		c5.4,1.7,11.6,4.1,18.5,7.1c6.9,2.9,14.4,6.4,22.4,9.8c8,3.4,15.8,6.4,23.1,8.6c7.3,2.3,14,3.7,19.7,4.6c5.7,0.8,10.4,1,13.6,0.9
		c3.2-0.1,5-0.4,5-0.6C330.2,318.1,328.4,317.9,325.3,317.5z"></path>
	<path d="M388.7,322.9c-3.2-0.4-7.7-0.9-13.2-2c-5.5-1.1-12.1-2.8-19.2-5.1c-7.1-2.3-14.8-5.3-22.8-8.6c-8-3.3-15.7-6.6-22.7-9.3
		c-3.5-1.4-6.9-2.6-10.2-3.7c-3.2-1.1-6.3-1.9-9.1-2.6c-2.8-0.7-5.4-1.2-7.7-1.5c-2.3-0.3-4.3-0.4-5.9-0.5c-1.6,0-2.9,0.1-3.7,0.2
		c-0.8,0.1-1.3,0.2-1.3,0.4c0,0.1,0.4,0.3,1.3,0.4c0.8,0.1,2.1,0.3,3.6,0.6c1.6,0.3,3.5,0.6,5.6,1.1c2.2,0.5,4.6,1.1,7.3,2
		c5.4,1.6,11.7,4,18.6,6.9c6.9,2.9,14.5,6.3,22.6,9.6c8.1,3.3,15.9,6.3,23.2,8.5c7.3,2.2,14,3.7,19.8,4.4c5.7,0.8,10.4,0.9,13.6,0.9
		c3.2-0.1,5-0.4,5-0.7C393.6,323.5,391.9,323.3,388.7,322.9z"></path>
	<path d="M219.5,294.4c-1.6-0.2-4-0.3-7-0.3c-3.1,0-6.8,0.3-11.1,0.9c-4.3,0.6-9.1,1.7-14.4,3.2c-5.2,1.5-10.9,3.4-16.9,5.7
		c-6,2.3-12.3,4.8-18.9,7.4c-6.6,2.6-13.6,5.3-21,7.6c-7.3,2.3-15.1,4.3-23.1,5.4c-1,0.1-2,0.3-3,0.4c-1,0.1-2,0.2-3,0.2
		c-2,0.1-3.9,0.1-5.9,0c-3.9-0.2-7.6-0.8-11.2-1.9c-1.9-0.6-3.8-1.2-5.6-2c1.3-0.1,2.6-0.3,3.9-0.5c4.1-0.6,8.2-1.4,12-2.5
		c3.9-1,7.6-2.3,11.2-3.5c7.1-2.6,13.7-5.4,19.9-8.1c6.1-2.7,11.8-5.2,17.1-7.3c5.3-2.1,10.1-3.9,14.3-5.2c4.3-1.4,8-2.4,11.1-3.1
		c3.1-0.7,5.5-1.2,7.1-1.6c1.6-0.3,2.5-0.6,2.5-0.7c0-0.1-0.9-0.2-2.6-0.1c-1.7,0.1-4.2,0.3-7.3,0.9c-3.2,0.5-7,1.3-11.4,2.5
		c-4.4,1.2-9.3,2.8-14.7,4.8c-5.4,2-11.2,4.3-17.4,6.9c-6.2,2.5-12.8,5.3-19.8,7.7c-7,2.4-14.6,4.6-22.5,5.6
		c-3.2,0.4-6.5,0.7-9.8,0.7c-2.3-1.5-4.5-3.3-6.5-5.2c-4.9-4.8-8.5-10.5-10.7-16.2c-2.2-5.7-3.2-11.5-3-16.7
		c0.1-5.2,1.3-9.9,2.9-13.7c1.7-3.8,3.8-6.8,5.8-8.9c2-2.2,3.8-3.6,5.1-4.6c1.3-1,1.9-1.5,1.9-1.6c-0.1-0.1-0.9,0.2-2.3,0.9
		c-1.4,0.8-3.5,2.1-5.7,4.2c-2.3,2.1-4.7,5.1-6.7,9.1c-1,2-1.8,4.2-2.5,6.6c-0.6,2.4-1.1,5.1-1.2,7.9c-0.3,5.6,0.5,11.8,2.8,17.9
		c1.1,3.1,2.6,6.2,4.5,9.1c1.9,3,4.1,5.8,6.7,8.5c0.8,0.8,1.7,1.6,2.6,2.4c-2.8-0.2-5.6-0.7-8.3-1.3c-4.1-1-8-2.4-11.5-4.3
		c-3.6-1.9-6.8-4.3-9.6-7c-2.8-2.7-5.2-5.8-7.1-9c-1.9-3.2-3.5-6.7-4.6-10.1c-1.1-3.5-1.8-7-2.2-10.4c-0.4-3.4-0.5-6.8-0.3-10.1
		c0.4-6.5,1.8-12.5,3.7-17.7c1.9-5.1,4.2-9.5,6.6-13.1c1.9,1.5,3.6,2.8,5.1,3.7c1.9,1.2,3.5,2.1,4.6,2.6c1.1,0.5,1.7,0.7,1.8,0.6
		c0.1-0.1-0.4-0.5-1.4-1.2c-0.9-0.7-2.3-1.7-4.1-3.1c-1.4-1.1-3-2.5-4.8-4.2c2.2-3,4.3-5.5,6.2-7.5c2.2-2.3,4.1-3.9,5.3-5
		c1.3-1.1,1.9-1.7,1.8-1.8c-0.1-0.1-0.7,0.2-1.8,0.9c-0.1-0.2-0.3-0.5-0.6-0.8c-0.5-0.6-1.2-1.5-2-2.7c-1.7-2.3-3.9-5.9-6-10.7
		c-2.1-4.7-3.9-10.7-5.1-17.4c-1.2-6.8-1.9-14.3-1.9-22.3c0-8,0.6-15.5,1.9-22.3c1.2-6.8,3.1-12.7,5.1-17.4c2-4.8,4.3-8.3,6-10.7
		c0.9-1.2,1.6-2.1,2-2.7c0.3-0.4,0.5-0.6,0.6-0.8c1.1,0.7,1.8,1,1.8,0.9c0.1-0.1-0.6-0.7-1.8-1.8c-1.3-1.1-3.1-2.7-5.3-5
		c-1.9-2-4.1-4.4-6.2-7.5c1.8-1.7,3.4-3.1,4.8-4.2c1.7-1.4,3.1-2.4,4.1-3.1c0.9-0.7,1.4-1.1,1.4-1.2c-0.1-0.1-0.7,0.1-1.8,0.6
		c-1.1,0.5-2.6,1.3-4.6,2.6c-1.5,1-3.2,2.2-5.1,3.7c-2.4-3.6-4.8-8-6.6-13.1c-1.9-5.2-3.3-11.2-3.7-17.7c-0.2-3.3-0.1-6.6,0.3-10.1
		c0.4-3.4,1.1-6.9,2.2-10.4c1.1-3.5,2.6-6.9,4.6-10.1c1.9-3.2,4.3-6.3,7.1-9c2.8-2.7,6.1-5.1,9.6-7c3.6-1.9,7.5-3.4,11.5-4.3
		c2.7-0.7,5.5-1.1,8.3-1.3c-0.9,0.8-1.8,1.6-2.6,2.4c-2.6,2.6-4.9,5.5-6.7,8.5c-1.9,3-3.3,6.1-4.5,9.1c-2.3,6.2-3.1,12.4-2.8,17.9
		c0.1,2.8,0.6,5.4,1.2,7.9c0.6,2.4,1.5,4.7,2.5,6.6c2,4,4.4,7,6.7,9.1c2.3,2.1,4.3,3.4,5.7,4.2c1.4,0.8,2.2,1,2.3,0.9
		c0.1-0.1-0.6-0.6-1.9-1.6c-1.2-1-3.1-2.4-5.1-4.6c-2-2.2-4.2-5.1-5.8-8.9c-1.7-3.8-2.8-8.5-2.9-13.7c-0.1-5.2,0.8-11,3-16.7
		c2.2-5.7,5.8-11.4,10.7-16.2c1.9-1.9,4.1-3.6,6.5-5.2c3.3,0,6.6,0.3,9.8,0.7c8,1.1,15.5,3.2,22.5,5.6c7,2.4,13.6,5.2,19.8,7.7
		c6.2,2.5,12,4.9,17.4,6.9c5.4,2,10.3,3.6,14.7,4.8c4.4,1.2,8.2,2,11.4,2.5c3.2,0.5,5.6,0.8,7.3,0.9c1.7,0.1,2.6,0,2.6-0.1
		c0-0.1-0.8-0.3-2.5-0.7c-1.6-0.3-4.1-0.8-7.1-1.6c-3.1-0.7-6.8-1.7-11.1-3.1c-4.3-1.4-9.1-3.1-14.3-5.2c-5.3-2.1-11-4.6-17.1-7.3
		c-6.1-2.7-12.7-5.5-19.9-8.1c-3.6-1.3-7.3-2.5-11.2-3.5c-3.9-1-7.9-1.9-12-2.5c-1.3-0.2-2.6-0.3-3.9-0.5c1.8-0.8,3.6-1.5,5.6-2
		c3.6-1,7.4-1.7,11.2-1.9c1.9-0.1,3.9-0.1,5.9,0c1,0.1,2,0.1,3,0.2c1,0.1,2,0.2,3,0.4c8,1.1,15.8,3.1,23.1,5.4
		c7.3,2.3,14.3,5,21,7.6c6.6,2.6,12.9,5.2,18.9,7.4c6,2.3,11.6,4.2,16.9,5.7c5.2,1.5,10.1,2.5,14.4,3.2c4.3,0.7,8,0.9,11.1,0.9
		c3.1,0,5.4-0.1,7-0.3c1.6-0.2,2.4-0.4,2.4-0.5c0-0.1-0.9-0.2-2.4-0.3c-1.6-0.1-3.9-0.1-6.9-0.4c-3-0.3-6.6-0.7-10.8-1.6
		c-4.2-0.8-8.9-2-14-3.7c-5.1-1.6-10.6-3.7-16.5-6.1c-5.9-2.4-12.1-5-18.7-7.8C146,13.2,139,10.4,131.5,8
		c-7.5-2.4-15.4-4.4-23.7-5.6c-1-0.1-2.1-0.3-3.1-0.4c-1.1-0.1-2.1-0.2-3.2-0.3c-2.1-0.1-4.2-0.1-6.3,0C91.1,1.9,87,2.6,83.1,3.8
		C79.2,5,75.6,6.6,72.2,8.6c-0.3,0.2-0.6,0.3-0.8,0.5c-0.5,0-1.1,0-1.6,0c-4.3,0.1-8.8,0.6-13.1,1.6c-4.4,1-8.6,2.6-12.5,4.7
		c-3.9,2.1-7.4,4.7-10.4,7.7c-3,3-5.6,6.3-7.7,9.9c-2.1,3.5-3.6,7.2-4.8,10.9c-1.1,3.7-1.9,7.5-2.2,11.1c-0.4,3.7-0.4,7.2-0.1,10.6
		c0.5,6.9,2.1,13.1,4.3,18.5c2.1,5.3,4.8,9.9,7.5,13.5c-2.4,2.1-5,4.7-7.5,7.8c-2.6,3.2-5.2,6.8-7.5,11c-2.4,4.2-4.5,8.9-6.3,14
		c-1.8,5.1-3.1,10.7-4.1,16.5C4.5,153,4,159,4,165.3c0,6.2,0.5,12.3,1.4,18.1c0.9,5.8,2.3,11.3,4.1,16.5c1.8,5.1,3.9,9.8,6.3,14
		c2.4,4.2,4.9,7.9,7.5,11c2.6,3.1,5.1,5.7,7.5,7.8c-2.7,3.7-5.4,8.2-7.5,13.5c-2.2,5.4-3.8,11.6-4.3,18.5c-0.3,3.4-0.3,7,0.1,10.6
		c0.4,3.7,1.1,7.4,2.2,11.1c1.1,3.7,2.7,7.4,4.8,11c2.1,3.5,4.6,6.9,7.7,9.9c3,3,6.6,5.6,10.4,7.7c3.9,2.1,8.1,3.7,12.5,4.7
		c4.4,1,8.8,1.5,13.1,1.6c0.5,0,1.1,0,1.6,0c0.3,0.2,0.6,0.3,0.8,0.5c3.3,2,7,3.6,10.9,4.8c3.9,1.2,8,1.8,12.1,2.1
		c2.1,0.1,4.2,0.1,6.3,0c1.1-0.1,2.1-0.1,3.2-0.3c1.1-0.1,2.1-0.2,3.1-0.4c8.3-1.2,16.2-3.2,23.7-5.6c7.5-2.4,14.5-5.2,21.1-7.9
		c6.6-2.7,12.9-5.4,18.7-7.8c5.9-2.4,11.4-4.4,16.5-6.1c5.1-1.6,9.8-2.8,14-3.7c4.2-0.8,7.8-1.3,10.8-1.6c3-0.3,5.3-0.3,6.9-0.4
		c1.6-0.1,2.4-0.1,2.4-0.3C221.9,294.8,221.1,294.6,219.5,294.4z M25.4,223.2c-2.4-3.2-4.7-6.8-6.9-10.9c-2.2-4.1-4.1-8.7-5.7-13.6
		c-1.6-5-2.9-10.3-3.7-15.9c-0.8-5.6-1.3-11.5-1.3-17.5s0.4-11.9,1.3-17.5c0.8-5.6,2.1-11,3.7-15.9c1.6-5,3.6-9.5,5.7-13.6
		c2.2-4.1,4.5-7.7,6.9-10.9c2.3-3,4.6-5.6,6.7-7.8c2.3,2.9,4.6,5.3,6.7,7.1c2.4,2.1,4.5,3.6,5.9,4.5c0.1,0,0.1,0.1,0.1,0.1
		c-0.2,0.1-0.5,0.2-0.8,0.5c-0.7,0.4-1.6,1.2-2.7,2.3c-1.1,1.1-2.3,2.5-3.5,4.2c-1.3,1.7-2.5,3.8-3.8,6.3
		c-2.5,4.8-4.7,10.9-6.1,17.9c-1.5,7-2.3,14.8-2.3,23c0,8.2,0.8,16,2.3,23c1.5,7,3.7,13.1,6.1,17.9c1.2,2.4,2.5,4.5,3.8,6.3
		c1.3,1.8,2.5,3.2,3.5,4.2c1.1,1.1,2,1.8,2.7,2.3c0.3,0.2,0.6,0.4,0.8,0.5c0,0-0.1,0.1-0.1,0.1c-1.4,0.9-3.5,2.4-5.9,4.5
		c-2,1.8-4.3,4.1-6.7,7.1C30,228.8,27.7,226.2,25.4,223.2z"></path>
	<path d="M215.1,45.7c-1.6,0.3-2.8,0.4-3.6,0.6c-0.8,0.1-1.3,0.3-1.3,0.4c0,0.1,0.4,0.3,1.3,0.4c0.8,0.1,2.1,0.2,3.7,0.1
		c1.6,0,3.6-0.2,5.9-0.5c2.3-0.3,4.8-0.8,7.6-1.5c2.8-0.7,5.8-1.6,9-2.7c3.2-1.1,6.6-2.3,10.1-3.7c7-2.8,14.6-6.1,22.6-9.5
		c8-3.4,15.6-6.4,22.6-8.8c7.1-2.4,13.5-4.1,19-5.3c5.5-1.2,10-1.7,13.2-2.1c3.1-0.4,4.9-0.6,4.9-0.9c0-0.3-1.8-0.5-5-0.6
		c-3.2-0.1-7.9,0.1-13.6,0.9c-5.7,0.8-12.4,2.3-19.7,4.6c-7.3,2.2-15,5.2-23.1,8.6c-8,3.4-15.5,6.9-22.4,9.8
		c-6.9,3-13.1,5.4-18.5,7.1c-2.7,0.8-5.1,1.5-7.3,2C218.5,45.1,216.6,45.4,215.1,45.7z"></path>
	<path d="M388.6,6.1C385.4,6,380.7,6.2,375,7c-5.7,0.8-12.5,2.2-19.8,4.4c-7.3,2.2-15.1,5.1-23.2,8.5c-8.1,3.3-15.7,6.7-22.6,9.6
		c-6.9,2.9-13.2,5.3-18.6,6.9c-2.7,0.8-5.2,1.5-7.3,2c-2.2,0.5-4.1,0.8-5.6,1.1c-1.6,0.3-2.8,0.4-3.6,0.6c-0.8,0.1-1.3,0.3-1.3,0.4
		c0,0.1,0.4,0.3,1.3,0.4c0.8,0.1,2.1,0.2,3.7,0.2c1.6,0,3.6-0.2,5.9-0.5c2.3-0.3,4.9-0.8,7.7-1.5c2.8-0.7,5.9-1.5,9.1-2.6
		c3.2-1.1,6.6-2.3,10.2-3.7c7.1-2.7,14.7-6,22.7-9.3c8-3.3,15.7-6.3,22.8-8.6c7.1-2.3,13.6-4,19.2-5.1c5.5-1.1,10.1-1.7,13.2-2
		c3.2-0.4,4.9-0.6,4.9-0.8C393.6,6.5,391.9,6.2,388.6,6.1z"></path>
	<path d="M584.9,284.9c1.6-0.3,2.8-0.4,3.6-0.6c0.8-0.1,1.3-0.3,1.3-0.4c0-0.1-0.4-0.3-1.3-0.4c-0.8-0.1-2.1-0.2-3.7-0.1
		c-1.6,0-3.6,0.2-5.9,0.5c-2.3,0.3-4.8,0.8-7.6,1.5c-2.8,0.7-5.8,1.6-9,2.7c-3.2,1.1-6.6,2.3-10.1,3.7c-7,2.8-14.6,6.1-22.6,9.5
		c-8,3.4-15.6,6.4-22.6,8.8c-7.1,2.4-13.5,4.1-19,5.3c-5.5,1.2-10,1.7-13.2,2.1c-3.1,0.4-4.9,0.6-4.9,0.9c0,0.3,1.8,0.5,5,0.6
		c3.2,0.1,7.9-0.1,13.6-0.9c5.7-0.8,12.4-2.3,19.7-4.6c7.3-2.2,15-5.2,23.1-8.6c8-3.4,15.5-6.9,22.4-9.8c6.9-3,13.1-5.4,18.5-7.1
		c2.7-0.8,5.1-1.5,7.3-2C581.5,285.5,583.4,285.1,584.9,284.9z"></path>
	<path d="M509.2,294.1c2.7-0.8,5.2-1.5,7.3-2c2.2-0.5,4.1-0.8,5.6-1.1c1.6-0.3,2.8-0.4,3.6-0.6c0.8-0.1,1.3-0.3,1.3-0.4
		c0-0.1-0.4-0.3-1.3-0.4c-0.8-0.1-2.1-0.2-3.7-0.2c-1.6,0-3.6,0.2-5.9,0.5c-2.3,0.3-4.9,0.8-7.7,1.5c-2.8,0.7-5.9,1.5-9.1,2.6
		c-3.2,1.1-6.6,2.3-10.2,3.7c-7.1,2.7-14.7,6-22.7,9.3c-8,3.3-15.7,6.3-22.8,8.6c-7.1,2.3-13.6,4-19.2,5.1c-5.5,1.1-10.1,1.7-13.2,2
		c-3.2,0.4-4.9,0.6-4.9,0.8c0,0.3,1.8,0.6,5,0.7c3.2,0.1,7.9-0.1,13.6-0.9c5.7-0.8,12.5-2.2,19.8-4.4c7.3-2.2,15.1-5.1,23.2-8.5
		c8.1-3.3,15.7-6.7,22.6-9.6C497.5,298.2,503.8,295.8,509.2,294.1z"></path>
	<path d="M474.7,13c3.1,0.4,7.7,1,13.2,2.1c5.5,1.1,12,2.9,19,5.3c7.1,2.4,14.7,5.4,22.6,8.8c8,3.4,15.5,6.7,22.6,9.5
		c3.5,1.4,6.9,2.7,10.1,3.7c3.2,1.1,6.2,2,9,2.7c2.8,0.7,5.4,1.2,7.6,1.5c2.3,0.3,4.2,0.5,5.9,0.5c1.6,0,2.9,0,3.7-0.1
		c0.8-0.1,1.3-0.2,1.3-0.4c0-0.1-0.4-0.3-1.3-0.4c-0.8-0.1-2-0.3-3.6-0.6c-1.6-0.3-3.4-0.6-5.6-1.1c-2.2-0.5-4.6-1.2-7.3-2
		c-5.4-1.7-11.6-4.1-18.5-7.1c-6.9-2.9-14.4-6.4-22.4-9.8c-8-3.4-15.8-6.4-23.1-8.6c-7.3-2.3-14-3.7-19.7-4.6
		c-5.7-0.8-10.4-1-13.6-0.9c-3.2,0.1-5,0.4-5,0.6C469.8,12.4,471.6,12.7,474.7,13z"></path>
	<path d="M411.3,7.6c3.2,0.4,7.7,0.9,13.2,2c5.5,1.1,12.1,2.8,19.2,5.1c7.1,2.3,14.8,5.3,22.8,8.6c8,3.3,15.7,6.6,22.7,9.3
		c3.5,1.4,6.9,2.6,10.2,3.7c3.2,1.1,6.3,1.9,9.1,2.6c2.8,0.7,5.4,1.2,7.7,1.5c2.3,0.3,4.3,0.4,5.9,0.5c1.6,0,2.9-0.1,3.7-0.2
		c0.9-0.1,1.3-0.3,1.3-0.4c0-0.1-0.4-0.3-1.3-0.4c-0.8-0.1-2.1-0.3-3.6-0.6c-1.6-0.3-3.5-0.6-5.6-1.1c-2.2-0.5-4.6-1.1-7.3-2
		c-5.4-1.6-11.7-4-18.6-6.9c-6.9-2.9-14.5-6.3-22.6-9.6c-8.1-3.3-15.9-6.3-23.2-8.5c-7.3-2.2-14-3.7-19.8-4.4
		c-5.7-0.8-10.4-0.9-13.6-0.9c-3.2,0.1-5,0.4-5,0.7C406.4,7,408.1,7.2,411.3,7.6z"></path>
	<path d="M794.6,147.2c-0.9-5.8-2.3-11.3-4.1-16.5c-1.8-5.1-3.9-9.8-6.3-14c-2.4-4.2-4.9-7.9-7.5-11c-2.6-3.1-5.1-5.7-7.5-7.8
		c2.7-3.7,5.4-8.2,7.5-13.5c2.2-5.4,3.8-11.6,4.3-18.5c0.3-3.4,0.3-7-0.1-10.6c-0.4-3.7-1.1-7.4-2.2-11.1c-1.1-3.7-2.7-7.4-4.8-10.9
		c-2.1-3.5-4.6-6.9-7.7-9.9c-3-3-6.6-5.6-10.4-7.7c-3.9-2.1-8.1-3.7-12.5-4.7c-4.4-1-8.8-1.5-13.1-1.6c-0.5,0-1.1,0-1.6,0
		c-0.3-0.2-0.6-0.4-0.8-0.5c-3.3-2-7-3.6-10.9-4.8c-3.9-1.2-8-1.8-12.1-2.1c-2.1-0.1-4.2-0.1-6.3,0c-1,0.1-2.1,0.1-3.2,0.3
		c-1.1,0.1-2.1,0.2-3.1,0.4C683.9,3.6,676,5.6,668.5,8c-7.5,2.4-14.5,5.2-21.1,7.9c-6.6,2.7-12.9,5.4-18.7,7.8
		c-5.9,2.4-11.4,4.4-16.5,6.1c-5.1,1.6-9.8,2.8-14,3.7c-4.2,0.8-7.8,1.3-10.8,1.6c-3,0.3-5.3,0.3-6.9,0.4c-1.6,0.1-2.4,0.1-2.4,0.3
		c0,0.1,0.8,0.3,2.4,0.5c1.6,0.2,4,0.3,7,0.3c3.1,0,6.8-0.3,11.1-0.9c4.3-0.6,9.1-1.7,14.4-3.2c5.2-1.5,10.9-3.4,16.9-5.7
		c6-2.3,12.3-4.8,18.9-7.4c6.6-2.6,13.6-5.3,21-7.6c7.3-2.3,15.1-4.3,23.1-5.4c1-0.1,2-0.3,3-0.4c1-0.1,2-0.2,3-0.2
		c2-0.1,3.9-0.1,5.9,0c3.9,0.2,7.6,0.8,11.2,1.9c1.9,0.6,3.8,1.2,5.6,2c-1.3,0.1-2.6,0.3-3.9,0.5c-4.1,0.6-8.2,1.4-12,2.5
		c-3.9,1-7.6,2.3-11.2,3.5c-7.1,2.6-13.7,5.4-19.9,8.1c-6.1,2.7-11.8,5.2-17.1,7.3c-5.3,2.1-10.1,3.9-14.3,5.2
		c-4.3,1.4-8,2.4-11.1,3.1c-3.1,0.7-5.5,1.2-7.1,1.6c-1.6,0.3-2.5,0.5-2.5,0.7c0,0.1,0.9,0.2,2.6,0.1c1.7-0.1,4.2-0.3,7.3-0.9
		c3.2-0.5,7-1.3,11.4-2.5c4.4-1.2,9.3-2.8,14.7-4.8c5.4-2,11.2-4.3,17.4-6.9c6.2-2.5,12.8-5.3,19.8-7.7c7-2.4,14.6-4.6,22.5-5.6
		c3.2-0.4,6.5-0.7,9.8-0.7c2.3,1.5,4.5,3.3,6.5,5.2c4.9,4.8,8.5,10.5,10.7,16.2c2.2,5.7,3.2,11.5,3,16.7c-0.1,5.2-1.3,9.9-2.9,13.7
		c-1.7,3.8-3.8,6.8-5.8,8.9c-2,2.2-3.8,3.6-5.1,4.6c-1.3,1-1.9,1.5-1.9,1.6c0.1,0.1,0.9-0.2,2.3-0.9c1.4-0.8,3.5-2.1,5.7-4.2
		c2.3-2.1,4.7-5.1,6.7-9.1c1-2,1.8-4.2,2.5-6.6c0.6-2.4,1.1-5.1,1.2-7.9c0.3-5.6-0.5-11.8-2.8-17.9c-1.1-3.1-2.6-6.2-4.5-9.1
		c-1.9-3-4.1-5.8-6.7-8.5c-0.8-0.8-1.7-1.6-2.6-2.4c2.8,0.2,5.6,0.7,8.3,1.3c4.1,1,8,2.4,11.5,4.3c3.6,1.9,6.8,4.3,9.6,7
		c2.8,2.7,5.2,5.8,7.1,9c1.9,3.3,3.5,6.7,4.6,10.1c1.1,3.5,1.8,7,2.2,10.4c0.4,3.4,0.5,6.8,0.3,10.1c-0.4,6.5-1.8,12.5-3.7,17.7
		c-1.9,5.1-4.2,9.5-6.6,13.1c-1.9-1.5-3.6-2.8-5.1-3.7c-1.9-1.2-3.5-2.1-4.6-2.6c-1.1-0.5-1.7-0.7-1.8-0.6c-0.1,0.1,0.4,0.5,1.4,1.2
		c0.9,0.7,2.3,1.7,4.1,3.1c1.4,1.1,3,2.5,4.8,4.2c-2.2,3-4.3,5.5-6.2,7.5c-2.2,2.3-4.1,3.9-5.3,5c-1.3,1.1-1.9,1.7-1.9,1.8
		c0.1,0.1,0.7-0.2,1.9-0.9c0.1,0.2,0.3,0.5,0.6,0.8c0.5,0.6,1.2,1.5,2,2.7c1.7,2.3,3.9,5.9,6,10.7c2.1,4.7,3.9,10.7,5.1,17.4
		c1.2,6.8,1.9,14.3,1.9,22.3c0,8-0.6,15.5-1.9,22.3c-1.2,6.8-3.1,12.7-5.1,17.4c-2,4.8-4.3,8.3-6,10.7c-0.9,1.2-1.6,2.1-2,2.7
		c-0.3,0.4-0.5,0.6-0.6,0.8c-1.1-0.7-1.8-1-1.9-0.9c-0.1,0.1,0.6,0.7,1.9,1.8c1.3,1.1,3.1,2.7,5.3,5c1.9,2,4.1,4.4,6.2,7.5
		c-1.8,1.7-3.4,3.1-4.8,4.2c-1.7,1.4-3.1,2.4-4.1,3.1c-0.9,0.7-1.4,1.1-1.4,1.2c0.1,0.1,0.7-0.1,1.8-0.6c1.1-0.5,2.6-1.3,4.6-2.6
		c1.5-1,3.2-2.2,5.1-3.7c2.4,3.6,4.8,8,6.6,13.1c1.9,5.2,3.3,11.2,3.7,17.7c0.2,3.3,0.1,6.6-0.3,10.1c-0.4,3.4-1.1,6.9-2.2,10.4
		c-1.1,3.5-2.6,6.9-4.6,10.1c-1.9,3.2-4.3,6.3-7.1,9c-2.8,2.7-6.1,5.1-9.6,7c-3.6,1.9-7.5,3.4-11.5,4.3c-2.7,0.7-5.5,1.1-8.3,1.3
		c0.9-0.8,1.8-1.6,2.6-2.4c2.6-2.6,4.9-5.5,6.7-8.5c1.9-3,3.3-6.1,4.5-9.1c2.3-6.2,3.1-12.4,2.8-17.9c-0.1-2.8-0.6-5.4-1.2-7.9
		c-0.6-2.4-1.5-4.7-2.5-6.6c-2-4-4.4-7-6.7-9.1c-2.3-2.1-4.3-3.4-5.7-4.2c-1.4-0.8-2.2-1-2.3-0.9c-0.1,0.1,0.6,0.6,1.9,1.6
		c1.2,1,3.1,2.4,5.1,4.6c2,2.2,4.2,5.1,5.8,8.9c1.7,3.8,2.8,8.5,2.9,13.7c0.1,5.2-0.8,11-3,16.7c-2.2,5.7-5.8,11.4-10.7,16.2
		c-1.9,1.9-4.1,3.6-6.5,5.2c-3.3,0-6.6-0.3-9.8-0.7c-7.9-1.1-15.5-3.2-22.5-5.6c-7-2.4-13.6-5.2-19.8-7.7c-6.2-2.5-12-4.9-17.4-6.9
		c-5.4-2-10.3-3.6-14.7-4.8c-4.4-1.2-8.2-2-11.4-2.5c-3.2-0.5-5.6-0.8-7.3-0.9c-1.7-0.1-2.6,0-2.6,0.1c0,0.1,0.8,0.3,2.5,0.7
		c1.6,0.3,4.1,0.8,7.1,1.6s6.8,1.7,11.1,3.1c4.3,1.4,9.1,3.1,14.3,5.2c5.3,2.1,11,4.6,17.1,7.3c6.1,2.7,12.7,5.5,19.9,8.1
		c3.6,1.3,7.3,2.5,11.2,3.5c3.9,1,7.9,1.9,12,2.5c1.3,0.2,2.6,0.3,3.9,0.5c-1.8,0.8-3.6,1.5-5.6,2c-3.6,1-7.4,1.7-11.2,1.9
		c-1.9,0.1-3.9,0.1-5.9,0c-1-0.1-2-0.1-3-0.2c-1-0.1-2-0.2-3-0.4c-8-1.1-15.8-3.1-23.1-5.4c-7.3-2.3-14.3-5-21-7.6
		c-6.6-2.6-12.9-5.2-18.9-7.4c-6-2.3-11.6-4.2-16.9-5.7c-5.2-1.5-10.1-2.5-14.4-3.2c-4.3-0.6-8-0.9-11.1-0.9c-3.1,0-5.4,0.1-7,0.3
		c-1.6,0.2-2.4,0.4-2.4,0.5c0,0.1,0.9,0.2,2.4,0.3c1.6,0.1,3.9,0.1,6.9,0.4c3,0.3,6.6,0.7,10.8,1.6c4.2,0.8,8.9,2,14,3.7
		c5.1,1.6,10.6,3.7,16.5,6.1c5.9,2.4,12.1,5,18.7,7.8c6.6,2.7,13.7,5.5,21.1,7.9c7.5,2.4,15.4,4.4,23.7,5.6c1,0.1,2.1,0.3,3.1,0.4
		c1.1,0.1,2.1,0.2,3.2,0.3c2.1,0.1,4.2,0.1,6.3,0c4.2-0.2,8.2-0.9,12.1-2.1c3.9-1.2,7.5-2.8,10.9-4.8c0.3-0.2,0.6-0.3,0.8-0.5
		c0.5,0,1.1,0,1.6,0c4.3-0.1,8.8-0.6,13.1-1.6c4.4-1,8.6-2.6,12.5-4.7c3.9-2.1,7.4-4.7,10.4-7.7c3.1-3,5.6-6.3,7.7-9.9
		c2.1-3.5,3.6-7.2,4.8-11c1.1-3.7,1.9-7.5,2.2-11.1c0.4-3.7,0.4-7.2,0.1-10.6c-0.5-6.9-2.1-13.1-4.3-18.5c-2.1-5.4-4.8-9.9-7.5-13.5
		c2.4-2.1,5-4.7,7.5-7.8c2.6-3.2,5.2-6.8,7.5-11c2.4-4.2,4.5-8.9,6.3-14c1.8-5.1,3.1-10.7,4.1-16.5c0.9-5.8,1.4-11.9,1.4-18.1
		C796,159,795.5,153,794.6,147.2z M790.9,182.8c-0.8,5.6-2.1,11-3.7,15.9c-1.6,5-3.6,9.5-5.7,13.6c-2.2,4.1-4.5,7.7-6.9,10.9
		c-2.3,3-4.6,5.6-6.7,7.8c-2.3-2.9-4.6-5.3-6.7-7.1c-2.4-2.1-4.5-3.6-5.9-4.5c-0.1,0-0.1-0.1-0.1-0.1c0.2-0.1,0.5-0.2,0.8-0.5
		c0.7-0.4,1.6-1.2,2.7-2.3c1.1-1.1,2.3-2.5,3.5-4.2c1.3-1.7,2.5-3.8,3.8-6.3c2.5-4.8,4.7-10.9,6.1-17.9c1.5-7,2.3-14.8,2.3-23
		c0-8.2-0.8-16-2.3-23c-1.5-7-3.7-13.1-6.1-17.9c-1.2-2.4-2.5-4.5-3.8-6.3c-1.3-1.7-2.5-3.2-3.5-4.2c-1.1-1.1-2-1.8-2.7-2.3
		c-0.3-0.2-0.6-0.4-0.8-0.5c0,0,0.1-0.1,0.1-0.1c1.4-0.9,3.5-2.4,5.9-4.5c2-1.8,4.3-4.1,6.7-7.1c2.1,2.2,4.4,4.7,6.7,7.8
		c2.4,3.2,4.7,6.8,6.9,10.9c2.2,4.1,4.1,8.7,5.7,13.6c1.6,5,2.9,10.3,3.7,15.9c0.8,5.6,1.3,11.5,1.3,17.5
		C792.1,171.3,791.7,177.2,790.9,182.8z"></path>
</g>
</svg>
