<!--?xml version="1.0" encoding="utf-8"?-->
<!-- Generator: Adobe Illustrator 22.1.0, SVG Export Plug-In . SVG Version: 6.00 Build 0)  -->
<svg version="1.1" id="_x34_" xmlns="http://www.w3.org/2000/svg" xmlns:xlink="http://www.w3.org/1999/xlink" x="0px" y="0px" viewBox="0 0 800 618.8" style="enable-background:new 0 0 800 618.8;" xml:space="preserve">
<style type="text/css">
	.stblack{fill:#000000;}
	.st0{fill:#FFFFFF;}
</style>
<g>
	<path class="stblack" d="M734.5,136.2c-30.7-39.3-75.6-69.5-133.4-89.9c-1.1-0.4-2.3-0.8-3.4-1.2c-2.4-0.9-4.7-1.8-7.1-2.6
		C540.2,24.8,480.9,15.5,419,15.5c-65.1,0-129.1,10.1-185,29.1C136,77.9,65.4,148.3,35.2,242.7c-22.3,70.1-18.5,147.7,7.9,195.7
		c3.7,8.1,7.9,15.6,12.6,22.3c2.2,3.1,4.2,6.2,5.9,9.2C88.5,532,27.7,577,20.9,592.1c-1,1.1-1.2,2.3-0.2,3.8
		c1.8,2.7,5.4,2.7,6.7,2.7c5.2,0,15.3-2.3,27.4-4.7c17.2-3.4,47.4-2.8,62.9-2.8c8,0,16,0.7,23.6,2.1c14.5,2.6,72.9,10.2,148.1,10.2
		c75.3,0,185-7.7,280.3-44.4c108.8-42,176.2-112,200.2-208C791,265.7,779.2,193.4,734.5,136.2z"></path>
	<path class="st0" d="M49.7,574.6c21.5-21.5,68.8-55.9,12.9-133.2C6.7,363.9,23.9,131.8,238.9,58.8c214.9-73.1,576-12.9,502.9,279.4
		C668.7,630.4,183,574.6,135.7,566S49.7,574.6,49.7,574.6z"></path>
</g>
<g font-family="noto" id="svgTXT" font-size="45"><text x="50%" y="56.525000000000006%" fill="2EDF82" text-anchor="middle" font-weight="bolder" style="fill: rgb(0, 0, 0);">すなちって呼んでいいですか？</text></g></svg>
